<svg xmlns="http://www.w3.org/2000/svg" viewBox="0 0 24 24">
  <!-- concentric arcs: circular fragments radiating from an atom (Morgan/ECFP) -->
  <circle cx="12" cy="12" r="1.6" fill="#8aa8c7"/>
  <path d="M12 7.4 a4.6 4.6 0 0 1 4.6 4.6 a4.6 4.6 0 0 1 -4.6 4.6"
        fill="none" stroke="#8aa8c7" stroke-width="1.6" stroke-linecap="round"/>
  <path d="M12 7.4 a4.6 4.6 0 0 0 -4.6 4.6 a4.6 4.6 0 0 0 4.6 4.6"
        fill="none" stroke="#8aa8c7" stroke-width="1.6" stroke-linecap="round" opacity="0.55"/>
  <path d="M12 3.6 a8.4 8.4 0 0 1 8.4 8.4 a8.4 8.4 0 0 1 -8.4 8.4"
        fill="none" stroke="#8aa8c7" stroke-width="1.6" stroke-linecap="round"/>
  <path d="M12 3.6 a8.4 8.4 0 0 0 -8.4 8.4 a8.4 8.4 0 0 0 8.4 8.4"
        fill="none" stroke="#8aa8c7" stroke-width="1.6" stroke-linecap="round" opacity="0.55"/>
</svg>
