<svg xmlns="http://www.w3.org/2000/svg" viewBox="0 0 24 24">
  <!-- A gear: settings -->
  <path d="M12 2.3 l1.5 0 0.5 2.3 a7.7 7.7 0 0 1 1.9 0.8 l2.1 -1.1 1.1 1.1 -1.1 2.1
           a7.7 7.7 0 0 1 0.8 1.9 l2.3 0.5 0 1.5 -2.3 0.5 a7.7 7.7 0 0 1 -0.8 1.9
           l1.1 2.1 -1.1 1.1 -2.1 -1.1 a7.7 7.7 0 0 1 -1.9 0.8 l-0.5 2.3 -1.5 0
           -1.5 0 -0.5 -2.3 a7.7 7.7 0 0 1 -1.9 -0.8 l-2.1 1.1 -1.1 -1.1 1.1 -2.1
           a7.7 7.7 0 0 1 -0.8 -1.9 l-2.3 -0.5 0 -1.5 2.3 -0.5 a7.7 7.7 0 0 1 0.8 -1.9
           l-1.1 -2.1 1.1 -1.1 2.1 1.1 a7.7 7.7 0 0 1 1.9 -0.8 l0.5 -2.3 1.5 0 Z"
        fill="none" stroke="#8aa8c7" stroke-width="1.4" stroke-linejoin="round"/>
  <circle cx="12" cy="12" r="3.1" fill="none" stroke="#4f8cc9" stroke-width="1.6"/>
</svg>
